<svg id="Слой_1" data-name="Слой 1" xmlns="http://www.w3.org/2000/svg" viewBox="0 0 467.66 102.07"><defs><style>.cls-1,.cls-2{fill:#fff;}.cls-2{fill-rule:evenodd;}</style></defs><title>logo</title><path class="cls-1" d="M80,102.13h-24V142.7h6.46v6.46h-8.3s-2.49.27-3.69-.92-.92-3.69-.92-3.69V100.28s.45-2.76,1.84-3.69a8,8,0,0,1,3.69-.92h33.2L80,102.13Zm22.13,46.11a3.84,3.84,0,0,1-2.77.92h-8.3V142.7h5.53V117.8l6.46-7.38v34.12s-.24,3-.92,3.69Z" transform="translate(-49.61 -90.64)"/><path class="cls-2" d="M62.53,117.8l4.61,5.53c1.84,2.21,7,9.54,10.14,9.22,4.05-.41,3.54-4.53,15.68-20.29a103.52,103.52,0,0,1,15.68-15.68s5.27-3.94,4.61-4.61c.62.64-3.31-8.55-25.82,13.83-4.21,4.19-11.26,14.17-12,13.83-3-1.38-6.45-6.45-6.45-6.45s-3.39-3.43-6.46-.92c-2.45,2,0,5.53,0,5.53Z" transform="translate(-49.61 -90.64)"/><path class="cls-1" d="M93.47,158.83a5.27,5.27,0,0,0-2-.15A5.3,5.3,0,0,0,83.82,154,5.3,5.3,0,0,0,79,151.65l2.4-8.94A5.28,5.28,0,0,0,71.18,140L67,155.66a5.29,5.29,0,0,0-8.08,2.94l-1.6,6a19.81,19.81,0,0,0,0,9.86A16.93,16.93,0,0,0,59,178.83a8,8,0,0,1,.36,5.18c-.25.93,5.21,3.2,1.25,2.14a26.08,26.08,0,0,0,9.71,5.47c6.4,1.71,14.1.91,14.1.91a1.75,1.75,0,0,0,2.1-1.06,11.18,11.18,0,0,1,2.48-5,22.63,22.63,0,0,0,5-9.17l3.24-12.08a5.26,5.26,0,0,0-3.75-6.42Zm-2.89,17.59a19.14,19.14,0,0,1-4.2,7.76,13.63,13.63,0,0,0-2.7,4.54s-6.38,1.15-11.77-.29a22.72,22.72,0,0,1-8.81-5.23,10.71,10.71,0,0,0-1.21-6.39,16.87,16.87,0,0,1-1.19-11.34l1.6-6a1.76,1.76,0,0,1,3.4.91l-1.81,6.74a1.76,1.76,0,0,0,3.4.91l7.28-27.18a1.76,1.76,0,0,1,3.4.91l-5.48,20.44a1.76,1.76,0,0,0,3.4.91l1.81-6.74a1.76,1.76,0,0,1,3.4.91l-1.8,6.74a1.76,1.76,0,0,0,3.4.91l1.81-6.74a1.76,1.76,0,0,1,3.4.91l-1.8,6.74a1.76,1.76,0,0,0,3.4.91l.9-3.37a1.76,1.76,0,0,1,3.4.91l-3.24,12.08Z" transform="translate(-49.61 -90.64)"/><path class="cls-1" d="M125.19,128a24.6,24.6,0,0,1,3.46-12.63,26.55,26.55,0,0,1,9.29-9.45,23.61,23.61,0,0,1,12.45-3.53,24,24,0,0,1,9.73,2,25.13,25.13,0,0,1,8.06,5.6,26.26,26.26,0,0,1,5.4,8.23,25.65,25.65,0,0,1,0,19.54,26.5,26.5,0,0,1-5.38,8.23,25.31,25.31,0,0,1-8.06,5.64,24.13,24.13,0,0,1-19.35.05,25.65,25.65,0,0,1-8.13-5.61,26.32,26.32,0,0,1-5.5-8.27A25,25,0,0,1,125.19,128Zm6.74-.07a19.08,19.08,0,0,0,1.44,7.25,20.65,20.65,0,0,0,4,6.3,19.09,19.09,0,0,0,5.92,4.35,16.42,16.42,0,0,0,7.1,1.59,16.77,16.77,0,0,0,7.2-1.59,18.6,18.6,0,0,0,5.9-4.34,20.24,20.24,0,0,0,3.9-6.27,19.69,19.69,0,0,0,0-14.54,20.07,20.07,0,0,0-3.93-6.27,18.65,18.65,0,0,0-5.88-4.31,17.3,17.3,0,0,0-16.44,1.13,20,20,0,0,0-9.2,16.72Z" transform="translate(-49.61 -90.64)"/><path class="cls-1" d="M192.61,152.82H186V121.63q0-8.93,4.74-14.11a16.11,16.11,0,0,1,12.48-5.18,17.3,17.3,0,0,1,9,2.3,15.57,15.57,0,0,1,6.09,6.69,22.89,22.89,0,0,1,2.18,10.29v31.19h-6.61V122q0-6.57-2.75-10a10.79,10.79,0,0,0-15.72,0q-2.75,3.4-2.75,10Z" transform="translate(-49.61 -90.64)"/><path class="cls-1" d="M232.69,152.82v-30a45.55,45.55,0,0,1,.47-7.19,15.25,15.25,0,0,1,1.93-5.34,16.46,16.46,0,0,1,3.62-4.32,15.35,15.35,0,0,1,4.78-2.73,16.81,16.81,0,0,1,5.66-.93,16,16,0,0,1,8.18,2.18,16.25,16.25,0,0,1,5.94,5.88,15.55,15.55,0,0,1,2.19,8.05,17,17,0,0,1-1.84,7.68,15.68,15.68,0,0,1-5,5.93,11.64,11.64,0,0,1-6.86,2.24q-5.65,0-8.81-2.27L241.77,124a9.51,9.51,0,0,0,3.59,2.85,10.49,10.49,0,0,0,4.55,1.07,8.09,8.09,0,0,0,4.46-1.3,9.07,9.07,0,0,0,3.19-3.55,10.41,10.41,0,0,0,1.16-4.84,9.67,9.67,0,0,0-1.29-4.9,9.36,9.36,0,0,0-3.53-3.53,9.69,9.69,0,0,0-4.9-1.29,9,9,0,0,0-7.05,3q-2.65,3-2.65,8.24v33Z" transform="translate(-49.61 -90.64)"/><path class="cls-1" d="M273.55,128A24.6,24.6,0,0,1,277,115.4a26.56,26.56,0,0,1,9.29-9.45,23.61,23.61,0,0,1,12.45-3.53,24,24,0,0,1,9.73,2,25.12,25.12,0,0,1,8.06,5.6,26.26,26.26,0,0,1,5.4,8.23,25.66,25.66,0,0,1,0,19.54,26.5,26.5,0,0,1-5.38,8.23,25.31,25.31,0,0,1-8.06,5.64,24.13,24.13,0,0,1-19.35.05,25.66,25.66,0,0,1-8.13-5.61,26.32,26.32,0,0,1-5.5-8.27A25,25,0,0,1,273.55,128Zm6.74-.07a19.08,19.08,0,0,0,1.44,7.25,20.65,20.65,0,0,0,4,6.3,19.1,19.1,0,0,0,5.92,4.35,16.41,16.41,0,0,0,7.09,1.59,16.77,16.77,0,0,0,7.21-1.59,18.59,18.59,0,0,0,5.9-4.34,20.23,20.23,0,0,0,3.9-6.27,19.69,19.69,0,0,0,0-14.54,20.08,20.08,0,0,0-3.93-6.27,18.65,18.65,0,0,0-5.88-4.31,17.29,17.29,0,0,0-16.44,1.13,20,20,0,0,0-9.2,16.72Z" transform="translate(-49.61 -90.64)"/><path class="cls-1" d="M332.58,128.31A25.19,25.19,0,0,1,336,115.48a26.5,26.5,0,0,1,9.28-9.52,23.54,23.54,0,0,1,12.46-3.55,24.1,24.1,0,0,1,14,4.37,26.6,26.6,0,0,1,5.16,4.79l-5.16,4q-5.72-7-14-7a16.83,16.83,0,0,0-9.22,2.7,19.58,19.58,0,0,0-6.73,7.26,20.1,20.1,0,0,0-2.49,9.79,18.65,18.65,0,0,0,2.5,9.27,19.88,19.88,0,0,0,6.77,7.16,16.81,16.81,0,0,0,9.18,2.71,17.22,17.22,0,0,0,8.92-2.45,17.69,17.69,0,0,0,6.58-6.92l5.43,4a28.21,28.21,0,0,1-5.55,6.14,24.32,24.32,0,0,1-7.11,4.06,24.24,24.24,0,0,1-20.73-2,26.18,26.18,0,0,1-9.28-9.32A24.38,24.38,0,0,1,332.58,128.31Z" transform="translate(-49.61 -90.64)"/><path class="cls-1" d="M388.75,152.82V103.24h6.47v20.51h21.42V103.24h6.54v49.58h-6.54V130H395.22v22.8Z" transform="translate(-49.61 -90.64)"/><path class="cls-1" d="M442.48,103.24v30.84q0,6.57,2.75,10a9.54,9.54,0,0,0,7.87,3.39,10.46,10.46,0,0,0,10.6-10.34V103.24h6.61v49.58H463.7v-4a8.14,8.14,0,0,1-4.33,3.57,16.08,16.08,0,0,1-6.27,1.33,17.32,17.32,0,0,1-9-2.3,15.59,15.59,0,0,1-6.09-6.69,22.86,22.86,0,0,1-2.18-10.29V103.24Z" transform="translate(-49.61 -90.64)"/><path class="cls-1" d="M483,152.82V103.24h6.47v20.52l18.73-20.52h9l-17.42,18.87a7.88,7.88,0,0,1,2.27-.47,11.41,11.41,0,0,1,4.23.89,13.89,13.89,0,0,1,4.11,2.57,13,13,0,0,1,3.07,4.17,12.82,12.82,0,0,1,1.18,5.58v18H508.1V135.55a7.75,7.75,0,0,0-1.13-3.9,8.79,8.79,0,0,0-3.36-3.23,10.48,10.48,0,0,0-5.27-1.27,9.42,9.42,0,0,0-6.46,2.09q-2.37,2.09-2.37,6.44v17.14Z" transform="translate(-49.61 -90.64)"/><path class="cls-1" d="M125.45,179.53V163h7.14c2.92,0,4.74,1.53,4.74,4a3.47,3.47,0,0,1-2.17,3.49,4.15,4.15,0,0,1,3.58,4.41c0,2.76-2.05,4.6-5.42,4.6Zm1.74-9.52h5.12c2.1,0,3.3-.94,3.3-2.66s-1.2-2.73-3.3-2.73h-5.12Zm0,7.95H133c2.45,0,3.87-1.18,3.87-3.23s-1.41-3.18-3.87-3.18h-5.82Z" transform="translate(-49.61 -90.64)"/><path class="cls-1" d="M142.94,179.53V163h1.74v6.15H149a6.1,6.1,0,0,1,4.34,1.44,4.83,4.83,0,0,1,1.58,3.75c0,3.11-2.22,5.16-5.92,5.16Zm1.74-1.58h4.22c2.71,0,4.29-1.3,4.29-3.58s-1.56-3.61-4.29-3.61h-4.22Zm12.78,1.58V163h1.74v16.5Z" transform="translate(-49.61 -90.64)"/><path class="cls-1" d="M169.55,178.54v-1.79a10.18,10.18,0,0,0,5.3,1.44c3.14,0,5.12-1.37,5.12-3.51,0-1.91-1.84-3.28-4.6-3.28h-2v-1.58h2.22c2.33,0,3.7-1,3.7-2.73s-1.65-2.71-4-2.71a11.55,11.55,0,0,0-4.9,1.15v-1.65a11.76,11.76,0,0,1,5-1.13,6.68,6.68,0,0,1,4.08,1.16A3.64,3.64,0,0,1,181,167a3.25,3.25,0,0,1-.85,2.36,4.31,4.31,0,0,1-1.84,1.18,5.59,5.59,0,0,1,2.4,1.49,3.71,3.71,0,0,1,1.06,2.78A4.38,4.38,0,0,1,180,178.4a7.63,7.63,0,0,1-4.86,1.41A11.22,11.22,0,0,1,169.55,178.54Z" transform="translate(-49.61 -90.64)"/><path class="cls-1" d="M184,179.53l7.36-16.6H193l7.38,16.6h-1.84L196.49,175h-8.65l-2,4.55Zm4.41-6.08h7.5l-3.75-8.32Z" transform="translate(-49.61 -90.64)"/><path class="cls-1" d="M203.78,179.53V163h12.94v16.5H215V164.61h-9.45v14.92Z" transform="translate(-49.61 -90.64)"/><path class="cls-1" d="M229.35,162.75a7.9,7.9,0,0,1,5.92,2.45,9,9,0,0,1,0,12.19,8.45,8.45,0,0,1-11.86,0,9.06,9.06,0,0,1,0-12.19A8,8,0,0,1,229.35,162.75Zm0,15.44a6.15,6.15,0,0,0,4.64-2,7.38,7.38,0,0,0,0-9.85,6.44,6.44,0,0,0-9.29,0,7.38,7.38,0,0,0,0,9.85A6.15,6.15,0,0,0,229.35,178.19Z" transform="translate(-49.61 -90.64)"/><path class="cls-1" d="M239.35,177.93a3.68,3.68,0,0,0,.66,0c1.51,0,2.29-1.16,2.78-2.95a10.81,10.81,0,0,0,.38-2.12c.09-.87.17-1.7.21-2.5s.07-1.77.09-2.88l.09-4.5h10.33v16.5h-1.74V164.61h-6.88l-.12,3.77a33.49,33.49,0,0,1-.71,7c-.66,2.81-2,4.1-4.43,4.2a4.62,4.62,0,0,1-.66,0Z" transform="translate(-49.61 -90.64)"/><path class="cls-1" d="M258.91,179.53V163h1.74v6.86h9.81V163h1.74v16.5h-1.74v-8.06h-9.81v8.06Z" transform="translate(-49.61 -90.64)"/><path class="cls-1" d="M275.91,179.53l5.33-7.59a4.28,4.28,0,0,1-3.89-4.43c0-2.71,2-4.48,5.19-4.48h7.4v16.5h-1.74v-7.43h-5l-5.21,7.43Zm12.28-9v-5.92h-5.54c-2.26,0-3.58,1.08-3.58,3s1.32,2.95,3.58,2.95Z" transform="translate(-49.61 -90.64)"/><path class="cls-1" d="M295,179.53V163h11.31v1.58H296.7v5.28h7.85v1.58H296.7V178h9.93v1.58Z" transform="translate(-49.61 -90.64)"/><path class="cls-1" d="M314.61,179.53V164.61h-5.68V163h13.18v1.58h-5.75v14.92Z" transform="translate(-49.61 -90.64)"/><path class="cls-1" d="M325.64,179.53V163H337v1.58h-9.57v5.28h7.85v1.58h-7.85V178h9.93v1.58Z" transform="translate(-49.61 -90.64)"/><path class="cls-1" d="M347.73,171.33v-1.58h6.62v1.58Z" transform="translate(-49.61 -90.64)"/><path class="cls-1" d="M366,179.53V163h1.72l6,8,6-8h1.7v16.5h-1.72V165.67l-5.4,7.21h-1.06l-5.45-7.21v13.86Z" transform="translate(-49.61 -90.64)"/><path class="cls-1" d="M386.39,179.53V163h1.74v6.15h4.34a6.1,6.1,0,0,1,4.34,1.44,4.83,4.83,0,0,1,1.58,3.75c0,3.11-2.21,5.16-5.92,5.16Zm1.74-1.58h4.22c2.71,0,4.29-1.3,4.29-3.58s-1.55-3.61-4.29-3.61h-4.22Zm12.78,1.58V163h1.74v16.5Z" transform="translate(-49.61 -90.64)"/><path class="cls-1" d="M414.27,179.53V163h12.94v16.5h-1.74V164.61H416v14.92Z" transform="translate(-49.61 -90.64)"/><path class="cls-1" d="M430.21,177.93a3.68,3.68,0,0,0,.66,0c1.51,0,2.29-1.16,2.78-2.95a10.84,10.84,0,0,0,.38-2.12c.09-.87.17-1.7.21-2.5s.07-1.77.09-2.88l.09-4.5h10.33v16.5H443V164.61h-6.88l-.12,3.77a33.53,33.53,0,0,1-.71,7c-.66,2.81-2,4.1-4.43,4.2a4.62,4.62,0,0,1-.66,0Z" transform="translate(-49.61 -90.64)"/><path class="cls-1" d="M448.15,179.53l7.36-16.6h1.63l7.38,16.6h-1.84L460.62,175H452l-2,4.55Zm4.41-6.08h7.5l-3.75-8.32Z" transform="translate(-49.61 -90.64)"/><path class="cls-1" d="M469.74,179.53V164.61h-5.68V163h13.18v1.58h-5.75v14.92Z" transform="translate(-49.61 -90.64)"/><path class="cls-1" d="M480.77,179.53V163h1.72v13.58L492.75,163h1.53v16.5h-1.72V165.91l-10.32,13.63Z" transform="translate(-49.61 -90.64)"/><path class="cls-1" d="M499.3,179.53V163H501l6,8,6-8h1.7v16.5h-1.72V165.67l-5.4,7.21h-1.06L501,165.67v13.86Z" transform="translate(-49.61 -90.64)"/></svg>